<svg width="173" height="56" viewBox="0 0 173 56" fill="none" xmlns="http://www.w3.org/2000/svg">
<g clip-path="url(#clip0_1511_64)">
<path d="M166.715 0H5.5814C2.49888 0 0 2.49888 0 5.5814V50.4186C0 53.5011 2.49888 56 5.5814 56H166.715C169.798 56 172.297 53.5011 172.297 50.4186V5.5814C172.297 2.49888 169.798 0 166.715 0Z" fill="#D8E0EE"/>
<mask id="mask0_1511_64" style="mask-type:luminance" maskUnits="userSpaceOnUse" x="9" y="9" width="55" height="38">
<path d="M63.8324 9.30225H9.30273V46.6976H63.8324V9.30225Z" fill="white"/>
</mask>
<g mask="url(#mask0_1511_64)">
<path d="M62.7006 9.30225H39.3038C38.7828 9.30225 38.3604 9.72085 38.3604 10.2371V14.5376C38.3604 15.0539 38.7828 15.4725 39.3038 15.4725H62.7006C63.2217 15.4725 63.644 15.0539 63.644 14.5376V10.2371C63.644 9.72085 63.2217 9.30225 62.7006 9.30225Z" fill="#8F9CB6"/>
<path d="M63.7266 46.6976H55.4245V36.4887H46.594V46.6976H38.292V19.9973H46.594V29.8697H55.4245V19.9973H63.7266V46.6976Z" fill="#8F9CB6"/>
<path d="M33.0445 27.3642C33.0445 30.7049 32.0132 33.1231 29.9501 34.6189C27.9124 36.0899 25.1199 36.8252 21.5726 36.8252C18.3273 36.8252 15.7234 36.0647 13.7611 34.5441C11.824 33.0234 10.6793 30.6798 10.327 27.5138C10.2516 26.7659 10.2265 26.2049 10.2516 25.831L18.4028 25.1205V25.8684C18.4028 26.2922 18.4153 26.6163 18.4405 26.8407C18.5914 28.0125 18.9059 28.8974 19.3839 29.4957C19.8619 30.0941 20.5915 30.3932 21.5726 30.3932C22.5538 30.3932 23.2833 30.0941 23.7614 29.4957C24.2645 28.8726 24.5161 27.9874 24.5161 26.8407V9.52661H33.0445V27.3642Z" fill="#8F9CB6"/>
<path d="M33.643 40.5273H10.2462C9.72515 40.5273 9.30273 40.9459 9.30273 41.4622V45.7627C9.30273 46.279 9.72515 46.6976 10.2462 46.6976H33.643C34.164 46.6976 34.5864 46.279 34.5864 45.7627V41.4622C34.5864 40.9459 34.164 40.5273 33.643 40.5273Z" fill="#8F9CB6"/>
</g>
<path d="M159.274 9.30225H76.8557C74.8007 9.30225 73.1348 10.9682 73.1348 13.0232V42.9767C73.1348 45.0317 74.8007 46.6976 76.8557 46.6976H159.274C161.329 46.6976 162.995 45.0317 162.995 42.9767V13.0232C162.995 10.9682 161.329 9.30225 159.274 9.30225Z" fill="#8F9CB6"/>
<path d="M86.3354 20.4577C88.8693 20.4577 90.8613 21.0701 92.3113 22.2949C93.775 23.5056 94.5071 25.406 94.5071 27.9963C94.5071 30.5865 93.775 32.494 92.3113 33.7188C90.8613 34.9295 88.8693 35.5348 86.3354 35.5348H79.916V20.4577H86.3354ZM85.5541 32.0506C86.4973 32.0506 87.2715 31.945 87.8769 31.7338C88.4822 31.5086 88.9468 31.1074 89.2705 30.5302C89.6084 29.939 89.7773 29.0943 89.7773 27.9963C89.7773 26.8982 89.6084 26.0606 89.2705 25.4834C88.9468 24.8922 88.4822 24.491 87.8769 24.2798C87.2715 24.0546 86.4973 23.9419 85.5541 23.9419H84.5616V32.0506H85.5541ZM107.418 32.0928C107.305 32.67 107.017 33.2471 106.552 33.8244C106.088 34.3874 105.419 34.859 104.546 35.2391C103.674 35.6192 102.618 35.8093 101.379 35.8093C99.3936 35.8093 97.8596 35.2954 96.775 34.2678C95.6913 33.2402 95.1489 31.7972 95.1489 29.939C95.1489 28.0667 95.6913 26.6166 96.775 25.589C97.8596 24.5472 99.3936 24.0264 101.379 24.0264C103.321 24.0264 104.842 24.5403 105.94 25.5679C107.037 26.5955 107.587 28.1089 107.587 30.1079C107.587 30.3895 107.58 30.6006 107.566 30.7414H99.6262C99.6262 31.5016 99.7806 32.0928 100.09 32.5151C100.414 32.9234 100.844 33.1275 101.379 33.1275C101.872 33.1275 102.237 33.0149 102.476 32.7897C102.73 32.5644 102.885 32.2688 102.942 31.9028L107.418 32.0928ZM101.379 26.6026C100.858 26.6026 100.435 26.7644 100.112 27.0883C99.802 27.4121 99.6466 27.8484 99.6466 28.3975H103.089C103.089 27.8484 102.928 27.4121 102.603 27.0883C102.294 26.7644 101.886 26.6026 101.379 26.6026ZM115.151 27.764C115.108 27.3979 114.96 27.1023 114.707 26.8771C114.453 26.6519 114.109 26.5392 113.673 26.5392C113.32 26.5392 113.024 26.6097 112.785 26.7504C112.56 26.8911 112.448 27.0883 112.448 27.3417C112.448 27.581 112.574 27.771 112.828 27.9118C113.081 28.0385 113.489 28.1441 114.052 28.2285L115.277 28.4186C116.15 28.5593 116.889 28.7424 117.494 28.9676C118.114 29.1928 118.621 29.5589 119.015 30.0657C119.408 30.5584 119.606 31.227 119.606 32.0717C119.606 33.3527 119.071 34.296 118.001 34.9013C116.945 35.5066 115.524 35.8093 113.736 35.8093C112.13 35.8093 110.794 35.5137 109.724 34.9224C108.654 34.3171 108.027 33.4231 107.844 32.2406L111.983 31.9028C112.039 32.3391 112.215 32.677 112.511 32.9163C112.821 33.1557 113.235 33.2753 113.756 33.2753C114.208 33.2753 114.552 33.1909 114.792 33.0219C115.045 32.839 115.171 32.5996 115.171 32.304C115.171 31.8676 114.608 31.5649 113.482 31.396L112.067 31.1848C110.899 31.0159 109.949 30.671 109.217 30.1501C108.499 29.6293 108.14 28.7987 108.14 27.6584C108.14 26.856 108.4 26.1803 108.921 25.6312C109.442 25.0822 110.117 24.681 110.948 24.4276C111.779 24.1602 112.666 24.0264 113.608 24.0264C115.143 24.0264 116.403 24.308 117.389 24.871C118.374 25.4341 118.972 26.2999 119.183 27.4684L115.151 27.764ZM124.683 24.3009V35.5348H120.333V24.3009H124.683ZM124.683 20.2466V23.0973H120.333V20.2466H124.683ZM137.754 34.5845C137.754 36.4287 137.198 37.7379 136.086 38.5122C134.988 39.3005 133.481 39.6947 131.567 39.6947C129.948 39.6947 128.596 39.385 127.513 38.7656C126.443 38.1461 125.739 37.1678 125.401 35.8304L129.793 35.6404C129.934 36.0064 130.145 36.2809 130.426 36.4639C130.708 36.6469 131.088 36.7384 131.567 36.7384C132.115 36.7384 132.559 36.5624 132.897 36.2105C133.235 35.8726 133.404 35.3165 133.404 34.5423V33.4654H133.319C132.954 33.9862 132.503 34.3663 131.968 34.6057C131.433 34.845 130.757 34.9646 129.941 34.9646C129.096 34.9646 128.329 34.7464 127.639 34.31C126.964 33.8737 126.429 33.2402 126.035 32.4096C125.64 31.579 125.443 30.6006 125.443 29.4744C125.443 28.3482 125.64 27.3768 126.035 26.5603C126.443 25.7297 126.998 25.1033 127.702 24.681C128.407 24.2446 129.202 24.0264 130.088 24.0264C130.821 24.0264 131.475 24.1531 132.052 24.4065C132.63 24.6458 133.108 25.0963 133.488 25.7579H133.573V24.3009H137.754V34.5845ZM131.736 31.8394C132.299 31.8394 132.749 31.6353 133.088 31.227C133.425 30.8188 133.594 30.2346 133.594 29.4744C133.594 28.7424 133.425 28.1792 133.088 27.7851C132.749 27.3768 132.299 27.1727 131.736 27.1727C131.158 27.1727 130.701 27.3768 130.363 27.7851C130.039 28.1792 129.877 28.7424 129.877 29.4744C129.877 30.2346 130.039 30.8188 130.363 31.227C130.701 31.6353 131.158 31.8394 131.736 31.8394ZM142.952 25.8424C143.838 24.6317 145.056 24.0264 146.605 24.0264C147.829 24.0264 148.786 24.3783 149.476 25.0822C150.167 25.7861 150.511 26.8349 150.511 28.2285V35.5348H146.161V29.1788C146.161 28.5593 146.035 28.1159 145.781 27.8484C145.542 27.5669 145.19 27.4261 144.725 27.4261C144.219 27.4261 143.81 27.6021 143.501 27.954C143.191 28.2919 143.035 28.8127 143.035 29.5166V35.5348H138.686V24.3009H142.867V25.8424H142.952ZM156.117 31.3115V35.5348H151.515V31.3115H156.117Z" fill="#D8E0EE"/>
</g>
<defs>
<clipPath id="clip0_1511_64">
<rect width="172.372" height="56" fill="white"/>
</clipPath>
</defs>
</svg>
